<svg width="171" height="177" viewBox="0 0 171 177" fill="none" xmlns="http://www.w3.org/2000/svg">
<path fill-rule="evenodd" clip-rule="evenodd" d="M84.5937 38.3816L139.043 84.5418L146 90.5937L21 91.5937L27.791 85.7652L83.5532 38.4891C83.8947 38.4077 84.2448 38.3719 84.5937 38.3816Z" fill="white"/>
<path fill-rule="evenodd" clip-rule="evenodd" d="M128 9.09369C122.477 9.09369 118 13.5708 118 19.0937V53.0768L141 72.5753V19.0937C141 13.5708 136.523 9.09369 131 9.09369H128ZM133.796 80.0937L118 66.7022V80.0937H133.796Z" fill="white"/>
<rect x="85.9635" width="18.8571" height="112.701" rx="9.42857" transform="rotate(49.7082 85.9635 0)" fill="white"/>
<rect x="72.2859" y="14.4775" width="18.8571" height="112.701" rx="9.42857" transform="rotate(-49.71 72.2859 14.4775)" fill="white"/>
<path fill-rule="evenodd" clip-rule="evenodd" d="M109.025 59.0937H59.2501L21 91.5227V172.094C21 174.303 22.7909 176.094 25 176.094H69V128.094C69 122.571 73.4772 118.094 79 118.094H88C93.5229 118.094 98 122.571 98 128.094V176.094H142C144.209 176.094 146 174.303 146 172.094V90.4395L109.025 59.0937ZM25 59.0937H44.6702L21 79.1616V63.0937C21 60.8846 22.7909 59.0937 25 59.0937ZM125.097 59.0937L146 76.8141V63.0937C146 60.8846 144.209 59.0937 142 59.0937H125.097Z" fill="white"/>
</svg>
