<svg width="165" height="157" viewBox="0 0 165 157" fill="none" xmlns="http://www.w3.org/2000/svg">
<path fill-rule="evenodd" clip-rule="evenodd" d="M3.60373 60.6771C-1.20124 65.482 -1.20124 73.2724 3.60373 78.0774L81.9053 156.379L82.5293 155.755L82.7042 155.93L160.032 78.6021C164.837 73.7971 164.837 66.0067 160.032 61.2017C155.227 56.3968 147.437 56.3968 142.632 61.2017L82.0802 121.753L21.0041 60.6771C16.1991 55.8721 8.4087 55.8721 3.60373 60.6771Z" fill="white"/>
<path fill-rule="evenodd" clip-rule="evenodd" d="M4.12833 3.60373C-0.676645 8.4087 -0.676647 16.1991 4.12833 21.0041L65.0139 81.8897L65 81.9036L81.9772 99.8468L160.552 21.2719C165.357 16.4669 165.327 8.64653 160.522 3.84156C155.717 -0.963423 147.897 -0.993414 143.092 3.81158L82.4142 64.4893L21.5287 3.60373C16.7237 -1.20124 8.9333 -1.20124 4.12833 3.60373Z" fill="white"/>
</svg>
